<svg width="1918" height="1059" viewBox="0 0 1918 1059" fill="none" xmlns="http://www.w3.org/2000/svg">
<g clip-path="url(#clip0_5003_4826)">
<rect x="-0.0810547" y="-0.0269775" width="1918.08" height="1059.03" fill="url(#paint0_linear_5003_4826)"/>
<path opacity="0.2" d="M1859 141.961C1859 638.672 1456.44 1041.34 959.862 1041.34C463.282 1041.34 60.7246 638.672 60.7246 141.961C60.7246 -354.75 463.282 -757.414 959.862 -757.414C1456.44 -757.414 1859 -354.75 1859 141.961Z" fill="#0F2C3E" fill-opacity="0.05" stroke="#0F2C3E" stroke-width="2"/>
<path opacity="0.3" d="M1663.5 141.961C1663.5 530.67 1348.47 845.78 959.864 845.78C571.258 845.78 256.231 530.67 256.231 141.961C256.231 -246.747 571.258 -561.857 959.864 -561.857C1348.47 -561.857 1663.5 -246.747 1663.5 141.961Z" fill="#0F2C3E" fill-opacity="0.05" stroke="#0F2C3E" stroke-width="2"/>
<path opacity="0.4" d="M1451.7 141.961C1451.7 413.667 1231.5 633.927 959.863 633.927C688.23 633.927 468.028 413.667 468.028 141.961C468.028 -129.744 688.23 -350.004 959.863 -350.004C1231.5 -350.004 1451.7 -129.744 1451.7 141.961Z" fill="#0F2C3E" fill-opacity="0.05" stroke="#0F2C3E" stroke-width="2"/>
<path opacity="0.5" d="M1313.22 141.962C1313.22 337.165 1155.01 495.408 959.863 495.408C764.712 495.408 606.51 337.165 606.51 141.962C606.51 -53.2417 764.712 -211.485 959.863 -211.485C1155.01 -211.485 1313.22 -53.2417 1313.22 141.962Z" fill="#0F2C3E" fill-opacity="0.03" stroke="#0F2C3E" stroke-width="2"/>
<path opacity="0.6" d="M1171.68 141.961C1171.68 258.975 1076.85 353.833 959.863 353.833C842.881 353.833 748.048 258.975 748.048 141.961C748.048 24.9476 842.881 -69.9103 959.863 -69.9103C1076.85 -69.9103 1171.68 24.9476 1171.68 141.961Z" fill="#0F2C3E" fill-opacity="0.01" stroke="#0F2C3E" stroke-width="2"/>
<path d="M649.558 368.372C651.798 369.012 652.268 369.474 652.918 371.676C652.954 371.783 653.063 371.854 653.171 371.854C653.28 371.854 653.388 371.783 653.424 371.676C654.075 369.474 654.544 369.012 656.785 368.372C656.893 368.337 656.966 368.23 656.966 368.124C656.966 368.017 656.893 367.91 656.785 367.875C654.544 367.235 654.075 366.774 653.424 364.571C653.388 364.464 653.28 364.393 653.171 364.393C653.063 364.393 652.954 364.464 652.918 364.571C652.268 366.774 651.798 367.235 649.558 367.875C649.449 367.91 649.377 368.017 649.377 368.124C649.377 368.266 649.449 368.337 649.558 368.372Z" fill="#194967"/>
<path d="M231.812 560.217C234.052 560.856 234.522 561.318 235.172 563.521C235.208 563.627 235.317 563.698 235.425 563.698C235.534 563.698 235.642 563.627 235.678 563.521C236.329 561.318 236.798 560.856 239.039 560.217C239.147 560.181 239.22 560.075 239.22 559.968C239.22 559.861 239.147 559.755 239.039 559.719C236.798 559.08 236.329 558.618 235.678 556.415C235.642 556.309 235.534 556.238 235.425 556.238C235.317 556.238 235.208 556.309 235.172 556.415C234.522 558.618 234.052 559.08 231.812 559.719C231.703 559.755 231.631 559.861 231.631 559.968C231.631 560.11 231.703 560.181 231.812 560.217Z" fill="#194967"/>
<path d="M928.543 990.09C930.784 990.729 931.253 991.191 931.904 993.394C931.94 993.5 932.048 993.571 932.157 993.571C932.265 993.571 932.374 993.5 932.41 993.394C933.06 991.191 933.53 990.729 935.771 990.09C935.879 990.054 935.951 989.948 935.951 989.841C935.951 989.735 935.879 989.628 935.771 989.592C933.53 988.953 933.06 988.491 932.41 986.288C932.374 986.182 932.265 986.111 932.157 986.111C932.048 986.111 931.94 986.182 931.904 986.288C931.253 988.491 930.784 988.953 928.543 989.592C928.435 989.628 928.363 989.735 928.363 989.841C928.363 989.983 928.435 990.054 928.543 990.09Z" fill="#194967"/>
<path d="M1006.09 25.5395C1008.33 26.179 1008.8 26.6409 1009.45 28.8435C1009.49 28.9501 1009.59 29.0212 1009.7 29.0212C1009.81 29.0212 1009.92 28.9501 1009.96 28.8435C1010.61 26.6409 1011.08 26.179 1013.32 25.5395C1013.43 25.504 1013.5 25.3974 1013.5 25.2909C1013.5 25.1843 1013.43 25.0777 1013.32 25.0422C1011.08 24.4027 1010.61 23.9408 1009.96 21.7382C1009.92 21.6316 1009.81 21.5605 1009.7 21.5605C1009.59 21.5605 1009.49 21.6316 1009.45 21.7382C1008.8 23.9408 1008.33 24.4027 1006.09 25.0422C1005.98 25.0777 1005.91 25.1843 1005.91 25.2909C1005.91 25.433 1005.98 25.504 1006.09 25.5395Z" fill="#194967"/>
<path d="M497.183 681.007C499.423 681.647 499.893 682.109 500.543 684.311C500.58 684.418 500.688 684.489 500.796 684.489C500.905 684.489 501.013 684.418 501.049 684.311C501.7 682.109 502.17 681.647 504.41 681.007C504.518 680.972 504.591 680.865 504.591 680.759C504.591 680.652 504.518 680.546 504.41 680.51C502.17 679.871 501.7 679.409 501.049 677.206C501.013 677.099 500.905 677.028 500.796 677.028C500.688 677.028 500.58 677.099 500.543 677.206C499.893 679.409 499.423 679.871 497.183 680.51C497.074 680.546 497.002 680.652 497.002 680.759C497.002 680.901 497.074 680.972 497.183 681.007Z" fill="#194967"/>
<path d="M550.182 273.634C552.423 274.274 552.893 274.736 553.543 276.938C553.579 277.045 553.688 277.116 553.796 277.116C553.905 277.116 554.013 277.045 554.049 276.938C554.7 274.736 555.169 274.274 557.41 273.634C557.518 273.599 557.59 273.492 557.59 273.386C557.59 273.279 557.518 273.173 557.41 273.137C555.169 272.498 554.7 272.036 554.049 269.833C554.013 269.727 553.905 269.656 553.796 269.656C553.688 269.656 553.579 269.727 553.543 269.833C552.893 272.036 552.423 272.498 550.182 273.137C550.074 273.173 550.002 273.279 550.002 273.386C550.002 273.528 550.074 273.599 550.182 273.634Z" fill="#194967"/>
<path d="M582.706 768.048C584.946 768.687 585.416 769.149 586.066 771.352C586.103 771.458 586.211 771.529 586.319 771.529C586.428 771.529 586.536 771.458 586.572 771.352C587.223 769.149 587.693 768.687 589.933 768.048C590.041 768.012 590.114 767.906 590.114 767.799C590.114 767.693 590.041 767.586 589.933 767.55C587.693 766.911 587.223 766.449 586.572 764.246C586.536 764.14 586.428 764.069 586.319 764.069C586.211 764.069 586.103 764.14 586.066 764.246C585.416 766.449 584.946 766.911 582.706 767.55C582.597 767.586 582.525 767.693 582.525 767.799C582.525 767.941 582.597 768.012 582.706 768.048Z" fill="#194967"/>
<path d="M406.438 982.393C408.678 983.032 409.148 983.494 409.799 985.697C409.835 985.803 409.943 985.874 410.052 985.874C410.16 985.874 410.268 985.803 410.305 985.697C410.955 983.494 411.425 983.032 413.665 982.393C413.774 982.357 413.846 982.25 413.846 982.144C413.846 982.037 413.774 981.931 413.665 981.895C411.425 981.256 410.955 980.794 410.305 978.591C410.268 978.485 410.16 978.414 410.052 978.414C409.943 978.414 409.835 978.485 409.799 978.591C409.148 980.794 408.678 981.256 406.438 981.895C406.33 981.931 406.257 982.037 406.257 982.144C406.257 982.286 406.33 982.357 406.438 982.393Z" fill="#194967"/>
<path d="M1525.86 698.179C1528.1 698.818 1528.57 699.28 1529.22 701.483C1529.26 701.589 1529.37 701.66 1529.48 701.66C1529.59 701.66 1529.69 701.589 1529.73 701.483C1530.38 699.28 1530.85 698.818 1533.09 698.179C1533.2 698.143 1533.27 698.037 1533.27 697.93C1533.27 697.823 1533.2 697.717 1533.09 697.681C1530.85 697.042 1530.38 696.58 1529.73 694.377C1529.69 694.271 1529.59 694.2 1529.48 694.2C1529.37 694.2 1529.26 694.271 1529.22 694.377C1528.57 696.58 1528.1 697.042 1525.86 697.681C1525.75 697.717 1525.68 697.823 1525.68 697.93C1525.68 698.072 1525.75 698.143 1525.86 698.179Z" fill="#194967"/>
<path d="M1515.02 287.253C1517.26 287.893 1517.73 288.354 1518.38 290.557C1518.42 290.664 1518.53 290.735 1518.64 290.735C1518.75 290.735 1518.85 290.664 1518.89 290.557C1519.54 288.354 1520.01 287.893 1522.25 287.253C1522.36 287.217 1522.43 287.111 1522.43 287.004C1522.43 286.898 1522.36 286.791 1522.25 286.756C1520.01 286.116 1519.54 285.654 1518.89 283.452C1518.85 283.345 1518.75 283.274 1518.64 283.274C1518.53 283.274 1518.42 283.345 1518.38 283.452C1517.73 285.654 1517.26 286.116 1515.02 286.756C1514.92 286.791 1514.84 286.898 1514.84 287.004C1514.84 287.146 1514.92 287.217 1515.02 287.253Z" fill="#194967"/>
<path d="M714.255 141.593C716.496 142.233 716.966 142.695 717.616 144.897C717.652 145.004 717.761 145.075 717.869 145.075C717.977 145.075 718.086 145.004 718.122 144.897C718.772 142.695 719.242 142.233 721.483 141.593C721.591 141.558 721.663 141.451 721.663 141.345C721.663 141.238 721.591 141.132 721.483 141.096C719.242 140.457 718.772 139.995 718.122 137.792C718.086 137.686 717.977 137.615 717.869 137.615C717.761 137.615 717.652 137.686 717.616 137.792C716.966 139.995 716.496 140.457 714.255 141.096C714.147 141.132 714.075 141.238 714.075 141.345C714.075 141.487 714.147 141.558 714.255 141.593Z" fill="#194967"/>
<path d="M342.507 133.896C344.747 134.535 345.217 134.997 345.868 137.2C345.904 137.307 346.012 137.378 346.12 137.378C346.229 137.378 346.337 137.307 346.373 137.2C347.024 134.997 347.494 134.535 349.734 133.896C349.842 133.86 349.915 133.754 349.915 133.647C349.915 133.541 349.842 133.434 349.734 133.399C347.494 132.759 347.024 132.297 346.373 130.095C346.337 129.988 346.229 129.917 346.12 129.917C346.012 129.917 345.904 129.988 345.868 130.095C345.217 132.297 344.747 132.759 342.507 133.399C342.398 133.434 342.326 133.541 342.326 133.647C342.326 133.789 342.398 133.86 342.507 133.896Z" fill="#194967"/>
<path d="M894.683 617.652C896.924 618.291 897.394 618.753 898.044 620.956C898.08 621.062 898.189 621.133 898.297 621.133C898.405 621.133 898.514 621.062 898.55 620.956C899.2 618.753 899.67 618.291 901.911 617.652C902.019 617.616 902.091 617.509 902.091 617.403C902.091 617.296 902.019 617.19 901.911 617.154C899.67 616.515 899.2 616.053 898.55 613.85C898.514 613.744 898.405 613.673 898.297 613.673C898.189 613.673 898.08 613.744 898.044 613.85C897.394 616.053 896.924 616.515 894.683 617.154C894.575 617.19 894.503 617.296 894.503 617.403C894.503 617.545 894.575 617.616 894.683 617.652Z" fill="#194967"/>
<path d="M630.887 653.178C633.128 653.818 633.597 654.28 634.248 656.482C634.284 656.589 634.392 656.66 634.501 656.66C634.609 656.66 634.718 656.589 634.754 656.482C635.404 654.28 635.874 653.818 638.114 653.178C638.223 653.143 638.295 653.036 638.295 652.93C638.295 652.823 638.223 652.716 638.114 652.681C635.874 652.041 635.404 651.58 634.754 649.377C634.718 649.27 634.609 649.199 634.501 649.199C634.392 649.199 634.284 649.27 634.248 649.377C633.597 651.58 633.128 652.041 630.887 652.681C630.779 652.716 630.706 652.823 630.706 652.93C630.706 653.072 630.779 653.143 630.887 653.178Z" fill="#194967"/>
<path d="M1494.55 774.561C1496.79 775.201 1497.26 775.663 1497.91 777.865C1497.94 777.972 1498.05 778.043 1498.16 778.043C1498.27 778.043 1498.38 777.972 1498.41 777.865C1499.06 775.663 1499.53 775.201 1501.77 774.561C1501.88 774.526 1501.95 774.419 1501.95 774.313C1501.95 774.206 1501.88 774.099 1501.77 774.064C1499.53 773.424 1499.06 772.963 1498.41 770.76C1498.38 770.653 1498.27 770.582 1498.16 770.582C1498.05 770.582 1497.94 770.653 1497.91 770.76C1497.26 772.963 1496.79 773.424 1494.55 774.064C1494.44 774.099 1494.37 774.206 1494.37 774.313C1494.37 774.455 1494.44 774.526 1494.55 774.561Z" fill="#194967"/>
<path d="M1403 291.398C1405.24 292.037 1405.71 292.499 1406.36 294.702C1406.4 294.808 1406.51 294.879 1406.62 294.879C1406.72 294.879 1406.83 294.808 1406.87 294.702C1407.52 292.499 1407.99 292.037 1410.23 291.398C1410.34 291.362 1410.41 291.256 1410.41 291.149C1410.41 291.043 1410.34 290.936 1410.23 290.9C1407.99 290.261 1407.52 289.799 1406.87 287.596C1406.83 287.49 1406.72 287.419 1406.62 287.419C1406.51 287.419 1406.4 287.49 1406.36 287.596C1405.71 289.799 1405.24 290.261 1403 290.9C1402.89 290.936 1402.82 291.043 1402.82 291.149C1402.82 291.291 1402.89 291.362 1403 291.398Z" fill="#194967"/>
<path d="M830.239 235.739C832.48 236.379 832.949 236.841 833.6 239.043C833.636 239.15 833.744 239.221 833.853 239.221C833.961 239.221 834.07 239.15 834.106 239.043C834.756 236.841 835.226 236.379 837.467 235.739C837.575 235.704 837.647 235.597 837.647 235.491C837.647 235.384 837.575 235.277 837.467 235.242C835.226 234.602 834.756 234.141 834.106 231.938C834.07 231.831 833.961 231.76 833.853 231.76C833.744 231.76 833.636 231.831 833.6 231.938C832.949 234.141 832.48 234.602 830.239 235.242C830.131 235.277 830.059 235.384 830.059 235.491C830.059 235.633 830.131 235.704 830.239 235.739Z" fill="#194967"/>
<path d="M1077.77 400.938C1080.01 401.578 1080.48 402.04 1081.13 404.242C1081.17 404.349 1081.28 404.42 1081.39 404.42C1081.5 404.42 1081.6 404.349 1081.64 404.242C1082.29 402.04 1082.76 401.578 1085 400.938C1085.11 400.903 1085.18 400.796 1085.18 400.69C1085.18 400.583 1085.11 400.477 1085 400.441C1082.76 399.802 1082.29 399.34 1081.64 397.137C1081.6 397.031 1081.5 396.959 1081.39 396.959C1081.28 396.959 1081.17 397.031 1081.13 397.137C1080.48 399.34 1080.01 399.802 1077.77 400.441C1077.67 400.477 1077.59 400.583 1077.59 400.69C1077.59 400.832 1077.67 400.903 1077.77 400.938Z" fill="#194967"/>
<path d="M1180.16 340.543C1182.4 341.183 1182.87 341.644 1183.52 343.847C1183.56 343.954 1183.67 344.025 1183.77 344.025C1183.88 344.025 1183.99 343.954 1184.03 343.847C1184.68 341.644 1185.15 341.183 1187.39 340.543C1187.5 340.508 1187.57 340.401 1187.57 340.294C1187.57 340.188 1187.5 340.081 1187.39 340.046C1185.15 339.406 1184.68 338.944 1184.03 336.742C1183.99 336.635 1183.88 336.564 1183.77 336.564C1183.67 336.564 1183.56 336.635 1183.52 336.742C1182.87 338.944 1182.4 339.406 1180.16 340.046C1180.05 340.081 1179.98 340.188 1179.98 340.294C1179.98 340.437 1180.05 340.508 1180.16 340.543Z" fill="#194967"/>
<path d="M1298.81 273.634C1301.05 274.274 1301.52 274.736 1302.17 276.938C1302.2 277.045 1302.31 277.116 1302.42 277.116C1302.53 277.116 1302.64 277.045 1302.67 276.938C1303.32 274.736 1303.79 274.274 1306.04 273.634C1306.14 273.599 1306.22 273.492 1306.22 273.386C1306.22 273.279 1306.14 273.173 1306.04 273.137C1303.79 272.498 1303.32 272.036 1302.67 269.833C1302.64 269.727 1302.53 269.656 1302.42 269.656C1302.31 269.656 1302.2 269.727 1302.17 269.833C1301.52 272.036 1301.05 272.498 1298.81 273.137C1298.7 273.173 1298.63 273.279 1298.63 273.386C1298.63 273.528 1298.7 273.599 1298.81 273.634Z" fill="#194967"/>
<path d="M1601.6 464.294C1603.84 464.934 1604.31 465.396 1604.96 467.598C1604.99 467.705 1605.1 467.776 1605.21 467.776C1605.32 467.776 1605.43 467.705 1605.46 467.598C1606.11 465.396 1606.58 464.934 1608.82 464.294C1608.93 464.259 1609.01 464.152 1609.01 464.046C1609.01 463.939 1608.93 463.833 1608.82 463.797C1606.58 463.158 1606.11 462.696 1605.46 460.493C1605.43 460.386 1605.32 460.315 1605.21 460.315C1605.1 460.315 1604.99 460.386 1604.96 460.493C1604.31 462.696 1603.84 463.158 1601.6 463.797C1601.49 463.833 1601.42 463.939 1601.42 464.046C1601.42 464.188 1601.49 464.259 1601.6 464.294Z" fill="#194967"/>
<path d="M628.298 372.091C629.296 372.091 630.105 371.295 630.105 370.314C630.105 369.333 629.296 368.538 628.298 368.538C627.3 368.538 626.491 369.333 626.491 370.314C626.491 371.295 627.3 372.091 628.298 372.091Z" fill="#194967"/>
<path d="M1317.3 280.906C1318.3 280.906 1319.11 280.11 1319.11 279.129C1319.11 278.148 1318.3 277.353 1317.3 277.353C1316.3 277.353 1315.49 278.148 1315.49 279.129C1315.49 280.11 1316.3 280.906 1317.3 280.906Z" fill="#194967"/>
<path d="M1428.12 456.763C1429.11 456.763 1429.92 455.968 1429.92 454.987C1429.92 454.005 1429.11 453.21 1428.12 453.21C1427.12 453.21 1426.31 454.005 1426.31 454.987C1426.31 455.968 1427.12 456.763 1428.12 456.763Z" fill="#194967"/>
<path d="M1161.31 441.96C1162.31 441.96 1163.12 441.165 1163.12 440.184C1163.12 439.203 1162.31 438.407 1161.31 438.407C1160.31 438.407 1159.5 439.203 1159.5 440.184C1159.5 441.165 1160.31 441.96 1161.31 441.96Z" fill="#194967"/>
<ellipse cx="772.77" cy="434.855" rx="2.31274" ry="3.55267" fill="url(#paint1_radial_5003_4826)" fill-opacity="0.5"/>
<path d="M960.775 436.086C961.454 436.086 962.004 435.545 962.004 434.878C962.004 434.211 961.454 433.67 960.775 433.67C960.097 433.67 959.547 434.211 959.547 434.878C959.547 435.545 960.097 436.086 960.775 436.086Z" fill="#194967"/>
<ellipse cx="558.157" cy="823.28" rx="3.55175" ry="3.55269" fill="url(#paint2_radial_5003_4826)" fill-opacity="0.5"/>
<path d="M623.505 824.512C624.183 824.512 624.734 823.971 624.734 823.304C624.734 822.637 624.183 822.096 623.505 822.096C622.826 822.096 622.276 822.637 622.276 823.304C622.276 823.971 622.826 824.512 623.505 824.512Z" fill="#194967"/>
<ellipse cx="493.991" cy="393.407" rx="3.61364" ry="3.55267" fill="url(#paint3_radial_5003_4826)" fill-opacity="0.5"/>
<path d="M494.016 394.638C494.694 394.638 495.244 394.098 495.244 393.43C495.244 392.763 494.694 392.223 494.016 392.223C493.337 392.223 492.787 392.763 492.787 393.43C492.787 394.098 493.337 394.638 494.016 394.638Z" fill="#194967"/>
<ellipse cx="321.67" cy="438.407" rx="3.61364" ry="3.55267" fill="url(#paint4_radial_5003_4826)" fill-opacity="0.5"/>
<path d="M321.694 439.639C322.372 439.639 322.923 439.098 322.923 438.431C322.923 437.764 322.372 437.223 321.694 437.223C321.015 437.223 320.465 437.764 320.465 438.431C320.465 439.098 321.015 439.639 321.694 439.639Z" fill="#194967"/>
<ellipse cx="1155.29" cy="541.435" rx="3.61339" ry="3.55269" fill="url(#paint5_radial_5003_4826)" fill-opacity="0.5"/>
<path d="M1155.31 542.666C1155.99 542.666 1156.54 542.126 1156.54 541.458C1156.54 540.791 1155.99 540.25 1155.31 540.25C1154.63 540.25 1154.08 540.791 1154.08 541.458C1154.08 542.126 1154.63 542.666 1155.31 542.666Z" fill="#194967"/>
<ellipse cx="1329.77" cy="51.7582" rx="3.61344" ry="3.55267" fill="url(#paint6_radial_5003_4826)" fill-opacity="0.5"/>
<path d="M1329.79 52.9898C1330.47 52.9898 1331.02 52.449 1331.02 51.7819C1331.02 51.1148 1330.47 50.574 1329.79 50.574C1329.12 50.574 1328.57 51.1148 1328.57 51.7819C1328.57 52.449 1329.12 52.9898 1329.79 52.9898Z" fill="#194967"/>
<ellipse cx="1580.17" cy="108.009" rx="3.61339" ry="3.55267" fill="url(#paint7_radial_5003_4826)" fill-opacity="0.5"/>
<path d="M1580.19 109.24C1580.87 109.24 1581.42 108.7 1581.42 108.032C1581.42 107.365 1580.87 106.825 1580.19 106.825C1579.51 106.825 1578.96 107.365 1578.96 108.032C1578.96 108.7 1579.51 109.24 1580.19 109.24Z" fill="#194967"/>
<ellipse cx="1728.16" cy="379.196" rx="3.61339" ry="3.55267" fill="url(#paint8_radial_5003_4826)" fill-opacity="0.5"/>
<path d="M1728.18 380.428C1728.86 380.428 1729.41 379.887 1729.41 379.22C1729.41 378.553 1728.86 378.012 1728.18 378.012C1727.5 378.012 1726.95 378.553 1726.95 379.22C1726.95 379.887 1727.5 380.428 1728.18 380.428Z" fill="#194967"/>
<ellipse cx="1755.39" cy="730.911" rx="3.61339" ry="3.55269" fill="url(#paint9_radial_5003_4826)" fill-opacity="0.5"/>
<path d="M1755.41 732.142C1756.09 732.142 1756.64 731.602 1756.64 730.934C1756.64 730.267 1756.09 729.727 1755.41 729.727C1754.73 729.727 1754.18 730.267 1754.18 730.934C1754.18 731.602 1754.73 732.142 1755.41 732.142Z" fill="#194967"/>
<ellipse cx="1571.29" cy="1018.08" rx="3.61344" ry="3.55266" fill="url(#paint10_radial_5003_4826)" fill-opacity="0.5"/>
<path d="M1571.31 1019.32C1571.99 1019.32 1572.54 1018.78 1572.54 1018.11C1572.54 1017.44 1571.99 1016.9 1571.31 1016.9C1570.63 1016.9 1570.08 1017.44 1570.08 1018.11C1570.08 1018.78 1570.63 1019.32 1571.31 1019.32Z" fill="#194967"/>
<ellipse cx="1161.06" cy="955.913" rx="3.61339" ry="3.55271" fill="url(#paint11_radial_5003_4826)" fill-opacity="0.5"/>
<path d="M1161.09 957.145C1161.76 957.145 1162.31 956.604 1162.31 955.937C1162.31 955.27 1161.76 954.729 1161.09 954.729C1160.41 954.729 1159.86 955.27 1159.86 955.937C1159.86 956.604 1160.41 957.145 1161.09 957.145Z" fill="#194967"/>
<ellipse cx="1321.51" cy="396.96" rx="3.61344" ry="3.55267" fill="url(#paint12_radial_5003_4826)" fill-opacity="0.5"/>
<path d="M1321.54 398.191C1322.22 398.191 1322.77 397.65 1322.77 396.983C1322.77 396.316 1322.22 395.775 1321.54 395.775C1320.86 395.775 1320.31 396.316 1320.31 396.983C1320.31 397.65 1320.86 398.191 1321.54 398.191Z" fill="#0F2C3E"/>
<ellipse cx="1234.47" cy="161.299" rx="3.61367" ry="3.55267" fill="url(#paint13_radial_5003_4826)" fill-opacity="0.5"/>
<path d="M1234.49 162.531C1235.17 162.531 1235.72 161.99 1235.72 161.323C1235.72 160.656 1235.17 160.115 1234.49 160.115C1233.81 160.115 1233.26 160.656 1233.26 161.323C1233.26 161.99 1233.81 162.531 1234.49 162.531Z" fill="#0F2C3E"/>
<ellipse cx="1449.94" cy="228.208" rx="3.61406" ry="3.55267" fill="url(#paint14_radial_5003_4826)" fill-opacity="0.5"/>
<path d="M1449.96 229.439C1450.64 229.439 1451.19 228.898 1451.19 228.231C1451.19 227.564 1450.64 227.023 1449.96 227.023C1449.28 227.023 1448.73 227.564 1448.73 228.231C1448.73 228.898 1449.28 229.439 1449.96 229.439Z" fill="#0F2C3E"/>
<ellipse cx="1617.46" cy="298.669" rx="3.61412" ry="3.55267" fill="url(#paint15_radial_5003_4826)" fill-opacity="0.5"/>
<path d="M1617.49 299.901C1618.16 299.901 1618.71 299.36 1618.71 298.693C1618.71 298.026 1618.16 297.485 1617.49 297.485C1616.81 297.485 1616.26 298.026 1616.26 298.693C1616.26 299.36 1616.81 299.901 1617.49 299.901Z" fill="#0F2C3E"/>
<ellipse cx="964.366" cy="250.116" rx="3.61381" ry="3.55267" fill="url(#paint16_radial_5003_4826)" fill-opacity="0.5"/>
<path d="M964.391 251.347C965.069 251.347 965.619 250.807 965.619 250.139C965.619 249.472 965.069 248.932 964.391 248.932C963.712 248.932 963.162 249.472 963.162 250.139C963.162 250.807 963.712 251.347 964.391 251.347Z" fill="#0F2C3E"/>
<ellipse cx="705.389" cy="260.774" rx="3.61364" ry="3.55267" fill="url(#paint17_radial_5003_4826)" fill-opacity="0.5"/>
<path d="M705.414 262.005C706.092 262.005 706.642 261.465 706.642 260.797C706.642 260.13 706.092 259.589 705.414 259.589C704.735 259.589 704.185 260.13 704.185 260.797C704.185 261.465 704.735 262.005 705.414 262.005Z" fill="#0F2C3E"/>
<ellipse cx="509.649" cy="399.328" rx="3.61364" ry="3.55267" fill="url(#paint18_radial_5003_4826)" fill-opacity="0.5"/>
<path d="M509.674 400.56C510.353 400.56 510.903 400.019 510.903 399.352C510.903 398.684 510.353 398.144 509.674 398.144C508.995 398.144 508.445 398.684 508.445 399.352C508.445 400.019 508.995 400.56 509.674 400.56Z" fill="#0F2C3E"/>
<ellipse cx="216.893" cy="170.181" rx="3.61364" ry="3.55267" fill="url(#paint19_radial_5003_4826)" fill-opacity="0.5"/>
<path d="M216.918 171.412C217.596 171.412 218.146 170.871 218.146 170.204C218.146 169.537 217.596 168.996 216.918 168.996C216.239 168.996 215.689 169.537 215.689 170.204C215.689 170.871 216.239 171.412 216.918 171.412Z" fill="#0F2C3E"/>
<ellipse cx="816.808" cy="511.829" rx="3.61364" ry="3.55269" fill="url(#paint20_radial_5003_4826)" fill-opacity="0.5"/>
<path d="M816.832 513.061C817.51 513.061 818.061 512.52 818.061 511.853C818.061 511.186 817.51 510.645 816.832 510.645C816.153 510.645 815.603 511.186 815.603 511.853C815.603 512.52 816.153 513.061 816.832 513.061Z" fill="#0F2C3E"/>
<ellipse cx="325.221" cy="768.214" rx="3.61365" ry="3.55269" fill="url(#paint21_radial_5003_4826)" fill-opacity="0.5"/>
<path d="M325.246 769.445C325.925 769.445 326.475 768.905 326.475 768.237C326.475 767.57 325.925 767.03 325.246 767.03C324.567 767.03 324.017 767.57 324.017 768.237C324.017 768.905 324.567 769.445 325.246 769.445Z" fill="#0F2C3E"/>
<ellipse cx="717.688" cy="26.8896" rx="3.61367" ry="3.55267" fill="url(#paint22_radial_5003_4826)" fill-opacity="0.5"/>
<path d="M717.713 28.1212C718.391 28.1212 718.941 27.5804 718.941 26.9133C718.941 26.2462 718.391 25.7054 717.713 25.7054C717.034 25.7054 716.484 26.2462 716.484 26.9133C716.484 27.5804 717.034 28.1212 717.713 28.1212Z" fill="#0F2C3E"/>
<ellipse cx="922.207" cy="816.175" rx="3.61364" ry="3.55266" fill="url(#paint23_radial_5003_4826)" fill-opacity="0.5"/>
<path d="M922.231 817.406C922.91 817.406 923.46 816.866 923.46 816.198C923.46 815.531 922.91 814.99 922.231 814.99C921.553 814.99 921.003 815.531 921.003 816.198C921.003 816.866 921.553 817.406 922.231 817.406Z" fill="#0F2C3E"/>
<ellipse cx="498.808" cy="612.488" rx="3.61364" ry="3.55266" fill="url(#paint24_radial_5003_4826)" fill-opacity="0.5"/>
<path d="M498.833 613.72C499.511 613.72 500.061 613.179 500.061 612.512C500.061 611.845 499.511 611.304 498.833 611.304C498.154 611.304 497.604 611.845 497.604 612.512C497.604 613.179 498.154 613.72 498.833 613.72Z" fill="#0F2C3E"/>
<ellipse cx="1297.42" cy="549.724" rx="3.61361" ry="3.55266" fill="url(#paint25_radial_5003_4826)" fill-opacity="0.5"/>
<path d="M1297.45 550.956C1298.13 550.956 1298.68 550.415 1298.68 549.748C1298.68 549.081 1298.13 548.54 1297.45 548.54C1296.77 548.54 1296.22 549.081 1296.22 549.748C1296.22 550.415 1296.77 550.956 1297.45 550.956Z" fill="#0F2C3E"/>
<ellipse cx="1307.66" cy="490.513" rx="3.61384" ry="3.55266" fill="url(#paint26_radial_5003_4826)" fill-opacity="0.5"/>
<path d="M1307.69 491.745C1308.36 491.745 1308.91 491.204 1308.91 490.537C1308.91 489.87 1308.36 489.329 1307.69 489.329C1307.01 489.329 1306.46 489.87 1306.46 490.537C1306.46 491.204 1307.01 491.745 1307.69 491.745Z" fill="#0F2C3E"/>
<ellipse cx="1351.02" cy="751.043" rx="3.6131" ry="3.55266" fill="url(#paint27_radial_5003_4826)" fill-opacity="0.5"/>
<path d="M1351.05 752.274C1351.73 752.274 1352.28 751.733 1352.28 751.066C1352.28 750.399 1351.73 749.858 1351.05 749.858C1350.37 749.858 1349.82 750.399 1349.82 751.066C1349.82 751.733 1350.37 752.274 1351.05 752.274Z" fill="#0F2C3E"/>
<ellipse cx="1461.18" cy="1055.39" rx="3.61316" ry="3.55266" fill="url(#paint28_radial_5003_4826)" fill-opacity="0.5"/>
<path d="M1461.21 1056.62C1461.89 1056.62 1462.44 1056.08 1462.44 1055.41C1462.44 1054.74 1461.89 1054.2 1461.21 1054.2C1460.53 1054.2 1459.98 1054.74 1459.98 1055.41C1459.98 1056.08 1460.53 1056.62 1461.21 1056.62Z" fill="#0F2C3E"/>
<ellipse cx="1681.98" cy="747.49" rx="3.6131" ry="3.55269" fill="url(#paint29_radial_5003_4826)" fill-opacity="0.5"/>
<path d="M1682.01 748.721C1682.69 748.721 1683.24 748.181 1683.24 747.514C1683.24 746.846 1682.69 746.306 1682.01 746.306C1681.33 746.306 1680.78 746.846 1680.78 747.514C1680.78 748.181 1681.33 748.721 1682.01 748.721Z" fill="#0F2C3E"/>
<ellipse cx="1148.63" cy="731.503" rx="3.6131" ry="3.55266" fill="url(#paint30_radial_5003_4826)" fill-opacity="0.5"/>
<path d="M1148.66 732.734C1149.33 732.734 1149.89 732.194 1149.89 731.526C1149.89 730.859 1149.33 730.318 1148.66 730.318C1147.98 730.318 1147.43 730.859 1147.43 731.526C1147.43 732.194 1147.98 732.734 1148.66 732.734Z" fill="#0F2C3E"/>
<ellipse cx="606.4" cy="1034.66" rx="3.6131" ry="3.55266" fill="url(#paint31_radial_5003_4826)" fill-opacity="0.5"/>
<path d="M606.424 1035.9C607.103 1035.9 607.653 1035.36 607.653 1034.69C607.653 1034.02 607.103 1033.48 606.424 1033.48C605.746 1033.48 605.196 1034.02 605.196 1034.69C605.196 1035.36 605.746 1035.9 606.424 1035.9Z" fill="#0F2C3E"/>
<ellipse cx="175.456" cy="822.096" rx="3.61312" ry="3.55269" fill="url(#paint32_radial_5003_4826)" fill-opacity="0.5"/>
<path d="M175.481 823.328C176.159 823.328 176.709 822.787 176.709 822.12C176.709 821.453 176.159 820.912 175.481 820.912C174.802 820.912 174.252 821.453 174.252 822.12C174.252 822.787 174.802 823.328 175.481 823.328Z" fill="#0F2C3E"/>
<ellipse cx="1433.54" cy="809.069" rx="3.61367" ry="3.55269" fill="url(#paint33_radial_5003_4826)" fill-opacity="0.5"/>
<path d="M1433.56 810.301C1434.24 810.301 1434.79 809.76 1434.79 809.093C1434.79 808.426 1434.24 807.885 1433.56 807.885C1432.88 807.885 1432.33 808.426 1432.33 809.093C1432.33 809.76 1432.88 810.301 1433.56 810.301Z" fill="#0F2C3E"/>
<ellipse cx="1423.9" cy="562.159" rx="3.61372" ry="3.55266" fill="url(#paint34_radial_5003_4826)" fill-opacity="0.5"/>
<path d="M1423.92 563.39C1424.6 563.39 1425.15 562.85 1425.15 562.182C1425.15 561.515 1424.6 560.974 1423.92 560.974C1423.24 560.974 1422.69 561.515 1422.69 562.182C1422.69 562.85 1423.24 563.39 1423.92 563.39Z" fill="#0F2C3E"/>
<ellipse cx="1521.47" cy="365.578" rx="3.61322" ry="3.55267" fill="url(#paint35_radial_5003_4826)" fill-opacity="0.5"/>
<path d="M1521.49 366.809C1522.17 366.809 1522.72 366.268 1522.72 365.601C1522.72 364.934 1522.17 364.393 1521.49 364.393C1520.81 364.393 1520.26 364.934 1520.26 365.601C1520.26 366.268 1520.81 366.809 1521.49 366.809Z" fill="#0F2C3E"/>
<ellipse cx="490.377" cy="261.366" rx="3.61364" ry="3.55267" fill="url(#paint36_radial_5003_4826)" fill-opacity="0.5"/>
<path d="M490.402 262.598C491.08 262.598 491.63 262.057 491.63 261.39C491.63 260.723 491.08 260.182 490.402 260.182C489.723 260.182 489.173 260.723 489.173 261.39C489.173 262.057 489.723 262.598 490.402 262.598Z" fill="#0F2C3E"/>
<ellipse cx="1477.76" cy="49.3898" rx="3.61361" ry="3.55267" fill="url(#paint37_radial_5003_4826)" fill-opacity="0.5"/>
<path d="M1477.78 50.6214C1478.46 50.6214 1479.01 50.0806 1479.01 49.4135C1479.01 48.7464 1478.46 48.2056 1477.78 48.2056C1477.11 48.2056 1476.56 48.7464 1476.56 49.4135C1476.56 50.0806 1477.11 50.6214 1477.78 50.6214Z" fill="#0F2C3E"/>
<ellipse cx="1278.15" cy="826.833" rx="3.61361" ry="3.55266" fill="url(#paint38_radial_5003_4826)" fill-opacity="0.5"/>
<path d="M1278.17 828.064C1278.85 828.064 1279.4 827.523 1279.4 826.856C1279.4 826.189 1278.85 825.648 1278.17 825.648C1277.49 825.648 1276.94 826.189 1276.94 826.856C1276.94 827.523 1277.49 828.064 1278.17 828.064Z" fill="#194967"/>
<ellipse cx="984.24" cy="482.224" rx="3.61367" ry="3.55269" fill="url(#paint39_radial_5003_4826)" fill-opacity="0.5"/>
<path d="M984.264 483.455C984.942 483.455 985.493 482.915 985.493 482.247C985.493 481.58 984.942 481.04 984.264 481.04C983.585 481.04 983.035 481.58 983.035 482.247C983.035 482.915 983.585 483.455 984.264 483.455Z" fill="#194967"/>
<ellipse cx="795.127" cy="786.569" rx="3.61361" ry="3.55266" fill="url(#paint40_radial_5003_4826)" fill-opacity="0.5"/>
<path d="M795.152 787.801C795.83 787.801 796.38 787.26 796.38 786.593C796.38 785.926 795.83 785.385 795.152 785.385C794.473 785.385 793.923 785.926 793.923 786.593C793.923 787.26 794.473 787.801 795.152 787.801Z" fill="#194967"/>
<ellipse cx="507.241" cy="535.514" rx="3.61364" ry="3.55266" fill="url(#paint41_radial_5003_4826)" fill-opacity="0.5"/>
<path d="M507.265 536.745C507.944 536.745 508.494 536.204 508.494 535.537C508.494 534.87 507.944 534.329 507.265 534.329C506.587 534.329 506.037 534.87 506.037 535.537C506.037 536.204 506.587 536.745 507.265 536.745Z" fill="#194967"/>
<ellipse cx="929.433" cy="257.221" rx="3.61364" ry="3.55267" fill="url(#paint42_radial_5003_4826)" fill-opacity="0.5"/>
<path d="M929.457 258.453C930.136 258.453 930.686 257.912 930.686 257.245C930.686 256.578 930.136 256.037 929.457 256.037C928.779 256.037 928.229 256.578 928.229 257.245C928.229 257.912 928.779 258.453 929.457 258.453Z" fill="#194967"/>
<ellipse opacity="0.4" cx="1072.67" cy="613.672" rx="5.91957" ry="5.9211" fill="url(#paint43_radial_5003_4826)"/>
<path opacity="0.4" d="M1081.05 613.672C1081.05 618.302 1077.3 622.054 1072.67 622.054C1068.04 622.054 1064.29 618.302 1064.29 613.672C1064.29 609.043 1068.04 605.291 1072.67 605.291C1077.3 605.291 1081.05 609.043 1081.05 613.672Z" stroke="#194967"/>
<path d="M1073.23 610.682L1072.11 610.68L1072.11 613.11L1069.68 613.112L1069.68 614.234L1072.11 614.234L1072.11 616.663L1073.23 616.665L1073.23 614.234L1075.66 614.233L1075.66 613.111L1073.23 613.111L1073.23 610.682Z" fill="#194967"/>
<ellipse opacity="0.4" cx="705.195" cy="457.355" rx="5.91957" ry="5.9211" fill="url(#paint44_radial_5003_4826)"/>
<path opacity="0.4" d="M713.574 457.355C713.574 461.984 709.822 465.737 705.195 465.737C700.567 465.737 696.815 461.984 696.815 457.355C696.815 452.726 700.567 448.973 705.195 448.973C709.822 448.973 713.574 452.726 713.574 457.355Z" stroke="#194967"/>
<path d="M705.757 454.364L704.635 454.363L704.634 456.793L702.204 456.794L702.205 457.917L704.634 457.916L704.633 460.346L705.756 460.347L705.758 457.916L708.187 457.916L708.185 456.793L705.756 456.794L705.757 454.364Z" fill="#194967"/>
<g opacity="0.3">
<ellipse opacity="0.4" cx="492.838" cy="340.709" rx="6.02274" ry="5.92112" fill="url(#paint45_radial_5003_4826)"/>
<path opacity="0.4" d="M501.372 340.709C501.372 345.33 497.559 349.091 492.838 349.091C488.116 349.091 484.304 345.33 484.304 340.709C484.304 336.088 488.116 332.327 492.838 332.327C497.559 332.327 501.372 336.088 501.372 340.709Z" stroke="#194967"/>
<path d="M493.41 337.718L492.268 337.717L492.267 340.146L489.795 340.148L489.796 341.271L492.267 341.27L492.267 343.7L493.409 343.701L493.41 341.27L495.882 341.27L495.88 340.147L493.409 340.148L493.41 337.718Z" fill="#194967"/>
</g>
</g>
<defs>
<linearGradient id="paint0_linear_5003_4826" x1="889.081" y1="-507.683" x2="1056.27" y2="2312.01" gradientUnits="userSpaceOnUse">
<stop stop-opacity="0.2"/>
<stop offset="0.235208" stop-color="#0A1D29"/>
<stop offset="0.701016" stop-color="#0A1D29" stop-opacity="0.3"/>
<stop offset="1" stop-opacity="0.1"/>
</linearGradient>
<radialGradient id="paint1_radial_5003_4826" cx="0" cy="0" r="1" gradientUnits="userSpaceOnUse" gradientTransform="translate(772.77 434.855) rotate(90) scale(3.55267 2.31274)">
<stop stop-color="#164664"/>
<stop offset="1" stop-color="#164664" stop-opacity="0"/>
</radialGradient>
<radialGradient id="paint2_radial_5003_4826" cx="0" cy="0" r="1" gradientUnits="userSpaceOnUse" gradientTransform="translate(558.157 823.28) rotate(90) scale(3.55269 3.55175)">
<stop stop-color="#164664"/>
<stop offset="1" stop-color="#164664" stop-opacity="0"/>
</radialGradient>
<radialGradient id="paint3_radial_5003_4826" cx="0" cy="0" r="1" gradientUnits="userSpaceOnUse" gradientTransform="translate(493.991 393.407) rotate(90) scale(3.55267 3.61364)">
<stop stop-color="#164664"/>
<stop offset="1" stop-color="#164664" stop-opacity="0"/>
</radialGradient>
<radialGradient id="paint4_radial_5003_4826" cx="0" cy="0" r="1" gradientUnits="userSpaceOnUse" gradientTransform="translate(321.67 438.407) rotate(90) scale(3.55267 3.61364)">
<stop stop-color="#164664"/>
<stop offset="1" stop-color="#164664" stop-opacity="0"/>
</radialGradient>
<radialGradient id="paint5_radial_5003_4826" cx="0" cy="0" r="1" gradientUnits="userSpaceOnUse" gradientTransform="translate(1155.29 541.435) rotate(90) scale(3.55269 3.61339)">
<stop stop-color="#164664"/>
<stop offset="1" stop-color="#164664" stop-opacity="0"/>
</radialGradient>
<radialGradient id="paint6_radial_5003_4826" cx="0" cy="0" r="1" gradientUnits="userSpaceOnUse" gradientTransform="translate(1329.77 51.7582) rotate(90) scale(3.55267 3.61344)">
<stop stop-color="#164664"/>
<stop offset="1" stop-color="#164664" stop-opacity="0"/>
</radialGradient>
<radialGradient id="paint7_radial_5003_4826" cx="0" cy="0" r="1" gradientUnits="userSpaceOnUse" gradientTransform="translate(1580.17 108.009) rotate(90) scale(3.55267 3.61339)">
<stop stop-color="#164664"/>
<stop offset="1" stop-color="#164664" stop-opacity="0"/>
</radialGradient>
<radialGradient id="paint8_radial_5003_4826" cx="0" cy="0" r="1" gradientUnits="userSpaceOnUse" gradientTransform="translate(1728.16 379.196) rotate(90) scale(3.55267 3.61339)">
<stop stop-color="#164664"/>
<stop offset="1" stop-color="#164664" stop-opacity="0"/>
</radialGradient>
<radialGradient id="paint9_radial_5003_4826" cx="0" cy="0" r="1" gradientUnits="userSpaceOnUse" gradientTransform="translate(1755.39 730.911) rotate(90) scale(3.55269 3.61339)">
<stop stop-color="#164664"/>
<stop offset="1" stop-color="#164664" stop-opacity="0"/>
</radialGradient>
<radialGradient id="paint10_radial_5003_4826" cx="0" cy="0" r="1" gradientUnits="userSpaceOnUse" gradientTransform="translate(1571.29 1018.08) rotate(90) scale(3.55266 3.61344)">
<stop stop-color="#164664"/>
<stop offset="1" stop-color="#164664" stop-opacity="0"/>
</radialGradient>
<radialGradient id="paint11_radial_5003_4826" cx="0" cy="0" r="1" gradientUnits="userSpaceOnUse" gradientTransform="translate(1161.06 955.913) rotate(90) scale(3.55271 3.61339)">
<stop stop-color="#164664"/>
<stop offset="1" stop-color="#164664" stop-opacity="0"/>
</radialGradient>
<radialGradient id="paint12_radial_5003_4826" cx="0" cy="0" r="1" gradientUnits="userSpaceOnUse" gradientTransform="translate(1321.51 396.96) rotate(90) scale(3.55267 3.61344)">
<stop stop-color="#164664"/>
<stop offset="1" stop-color="#164664" stop-opacity="0"/>
</radialGradient>
<radialGradient id="paint13_radial_5003_4826" cx="0" cy="0" r="1" gradientUnits="userSpaceOnUse" gradientTransform="translate(1234.47 161.299) rotate(90) scale(3.55267 3.61367)">
<stop stop-color="#164664"/>
<stop offset="1" stop-color="#164664" stop-opacity="0"/>
</radialGradient>
<radialGradient id="paint14_radial_5003_4826" cx="0" cy="0" r="1" gradientUnits="userSpaceOnUse" gradientTransform="translate(1449.94 228.208) rotate(90) scale(3.55267 3.61406)">
<stop stop-color="#164664"/>
<stop offset="1" stop-color="#164664" stop-opacity="0"/>
</radialGradient>
<radialGradient id="paint15_radial_5003_4826" cx="0" cy="0" r="1" gradientUnits="userSpaceOnUse" gradientTransform="translate(1617.46 298.669) rotate(90) scale(3.55267 3.61412)">
<stop stop-color="#164664"/>
<stop offset="1" stop-color="#164664" stop-opacity="0"/>
</radialGradient>
<radialGradient id="paint16_radial_5003_4826" cx="0" cy="0" r="1" gradientUnits="userSpaceOnUse" gradientTransform="translate(964.366 250.116) rotate(90) scale(3.55267 3.61381)">
<stop stop-color="#164664"/>
<stop offset="1" stop-color="#164664" stop-opacity="0"/>
</radialGradient>
<radialGradient id="paint17_radial_5003_4826" cx="0" cy="0" r="1" gradientUnits="userSpaceOnUse" gradientTransform="translate(705.389 260.774) rotate(90) scale(3.55267 3.61364)">
<stop stop-color="#164664"/>
<stop offset="1" stop-color="#164664" stop-opacity="0"/>
</radialGradient>
<radialGradient id="paint18_radial_5003_4826" cx="0" cy="0" r="1" gradientUnits="userSpaceOnUse" gradientTransform="translate(509.649 399.328) rotate(90) scale(3.55267 3.61364)">
<stop stop-color="#164664"/>
<stop offset="1" stop-color="#164664" stop-opacity="0"/>
</radialGradient>
<radialGradient id="paint19_radial_5003_4826" cx="0" cy="0" r="1" gradientUnits="userSpaceOnUse" gradientTransform="translate(216.893 170.181) rotate(90) scale(3.55267 3.61364)">
<stop stop-color="#164664"/>
<stop offset="1" stop-color="#164664" stop-opacity="0"/>
</radialGradient>
<radialGradient id="paint20_radial_5003_4826" cx="0" cy="0" r="1" gradientUnits="userSpaceOnUse" gradientTransform="translate(816.808 511.829) rotate(90) scale(3.55269 3.61364)">
<stop stop-color="#164664"/>
<stop offset="1" stop-color="#164664" stop-opacity="0"/>
</radialGradient>
<radialGradient id="paint21_radial_5003_4826" cx="0" cy="0" r="1" gradientUnits="userSpaceOnUse" gradientTransform="translate(325.221 768.214) rotate(90) scale(3.55269 3.61365)">
<stop stop-color="#164664"/>
<stop offset="1" stop-color="#164664" stop-opacity="0"/>
</radialGradient>
<radialGradient id="paint22_radial_5003_4826" cx="0" cy="0" r="1" gradientUnits="userSpaceOnUse" gradientTransform="translate(717.688 26.8896) rotate(90) scale(3.55267 3.61367)">
<stop stop-color="#164664"/>
<stop offset="1" stop-color="#164664" stop-opacity="0"/>
</radialGradient>
<radialGradient id="paint23_radial_5003_4826" cx="0" cy="0" r="1" gradientUnits="userSpaceOnUse" gradientTransform="translate(922.207 816.175) rotate(90) scale(3.55266 3.61364)">
<stop stop-color="#164664"/>
<stop offset="1" stop-color="#164664" stop-opacity="0"/>
</radialGradient>
<radialGradient id="paint24_radial_5003_4826" cx="0" cy="0" r="1" gradientUnits="userSpaceOnUse" gradientTransform="translate(498.808 612.488) rotate(90) scale(3.55266 3.61364)">
<stop stop-color="#164664"/>
<stop offset="1" stop-color="#164664" stop-opacity="0"/>
</radialGradient>
<radialGradient id="paint25_radial_5003_4826" cx="0" cy="0" r="1" gradientUnits="userSpaceOnUse" gradientTransform="translate(1297.42 549.724) rotate(90) scale(3.55266 3.61361)">
<stop stop-color="#164664"/>
<stop offset="1" stop-color="#164664" stop-opacity="0"/>
</radialGradient>
<radialGradient id="paint26_radial_5003_4826" cx="0" cy="0" r="1" gradientUnits="userSpaceOnUse" gradientTransform="translate(1307.66 490.513) rotate(90) scale(3.55266 3.61384)">
<stop stop-color="#164664"/>
<stop offset="1" stop-color="#164664" stop-opacity="0"/>
</radialGradient>
<radialGradient id="paint27_radial_5003_4826" cx="0" cy="0" r="1" gradientUnits="userSpaceOnUse" gradientTransform="translate(1351.02 751.043) rotate(90) scale(3.55266 3.6131)">
<stop stop-color="#164664"/>
<stop offset="1" stop-color="#164664" stop-opacity="0"/>
</radialGradient>
<radialGradient id="paint28_radial_5003_4826" cx="0" cy="0" r="1" gradientUnits="userSpaceOnUse" gradientTransform="translate(1461.18 1055.39) rotate(90) scale(3.55266 3.61316)">
<stop stop-color="#164664"/>
<stop offset="1" stop-color="#164664" stop-opacity="0"/>
</radialGradient>
<radialGradient id="paint29_radial_5003_4826" cx="0" cy="0" r="1" gradientUnits="userSpaceOnUse" gradientTransform="translate(1681.98 747.49) rotate(90) scale(3.55269 3.6131)">
<stop stop-color="#164664"/>
<stop offset="1" stop-color="#164664" stop-opacity="0"/>
</radialGradient>
<radialGradient id="paint30_radial_5003_4826" cx="0" cy="0" r="1" gradientUnits="userSpaceOnUse" gradientTransform="translate(1148.63 731.503) rotate(90) scale(3.55266 3.6131)">
<stop stop-color="#164664"/>
<stop offset="1" stop-color="#164664" stop-opacity="0"/>
</radialGradient>
<radialGradient id="paint31_radial_5003_4826" cx="0" cy="0" r="1" gradientUnits="userSpaceOnUse" gradientTransform="translate(606.4 1034.66) rotate(90) scale(3.55266 3.6131)">
<stop stop-color="#164664"/>
<stop offset="1" stop-color="#164664" stop-opacity="0"/>
</radialGradient>
<radialGradient id="paint32_radial_5003_4826" cx="0" cy="0" r="1" gradientUnits="userSpaceOnUse" gradientTransform="translate(175.456 822.096) rotate(90) scale(3.55269 3.61312)">
<stop stop-color="#164664"/>
<stop offset="1" stop-color="#164664" stop-opacity="0"/>
</radialGradient>
<radialGradient id="paint33_radial_5003_4826" cx="0" cy="0" r="1" gradientUnits="userSpaceOnUse" gradientTransform="translate(1433.54 809.069) rotate(90) scale(3.55269 3.61367)">
<stop stop-color="#164664"/>
<stop offset="1" stop-color="#164664" stop-opacity="0"/>
</radialGradient>
<radialGradient id="paint34_radial_5003_4826" cx="0" cy="0" r="1" gradientUnits="userSpaceOnUse" gradientTransform="translate(1423.9 562.159) rotate(90) scale(3.55266 3.61372)">
<stop stop-color="#164664"/>
<stop offset="1" stop-color="#164664" stop-opacity="0"/>
</radialGradient>
<radialGradient id="paint35_radial_5003_4826" cx="0" cy="0" r="1" gradientUnits="userSpaceOnUse" gradientTransform="translate(1521.47 365.578) rotate(90) scale(3.55267 3.61322)">
<stop stop-color="#164664"/>
<stop offset="1" stop-color="#164664" stop-opacity="0"/>
</radialGradient>
<radialGradient id="paint36_radial_5003_4826" cx="0" cy="0" r="1" gradientUnits="userSpaceOnUse" gradientTransform="translate(490.377 261.366) rotate(90) scale(3.55267 3.61364)">
<stop stop-color="#164664"/>
<stop offset="1" stop-color="#164664" stop-opacity="0"/>
</radialGradient>
<radialGradient id="paint37_radial_5003_4826" cx="0" cy="0" r="1" gradientUnits="userSpaceOnUse" gradientTransform="translate(1477.76 49.3898) rotate(90) scale(3.55267 3.61361)">
<stop stop-color="#164664"/>
<stop offset="1" stop-color="#164664" stop-opacity="0"/>
</radialGradient>
<radialGradient id="paint38_radial_5003_4826" cx="0" cy="0" r="1" gradientUnits="userSpaceOnUse" gradientTransform="translate(1278.15 826.833) rotate(90) scale(3.55266 3.61361)">
<stop stop-color="#164664"/>
<stop offset="1" stop-color="#164664" stop-opacity="0"/>
</radialGradient>
<radialGradient id="paint39_radial_5003_4826" cx="0" cy="0" r="1" gradientUnits="userSpaceOnUse" gradientTransform="translate(984.24 482.224) rotate(90) scale(3.55269 3.61367)">
<stop stop-color="#164664"/>
<stop offset="1" stop-color="#164664" stop-opacity="0"/>
</radialGradient>
<radialGradient id="paint40_radial_5003_4826" cx="0" cy="0" r="1" gradientUnits="userSpaceOnUse" gradientTransform="translate(795.127 786.569) rotate(90) scale(3.55266 3.61361)">
<stop stop-color="#164664"/>
<stop offset="1" stop-color="#164664" stop-opacity="0"/>
</radialGradient>
<radialGradient id="paint41_radial_5003_4826" cx="0" cy="0" r="1" gradientUnits="userSpaceOnUse" gradientTransform="translate(507.241 535.514) rotate(90) scale(3.55266 3.61364)">
<stop stop-color="#164664"/>
<stop offset="1" stop-color="#164664" stop-opacity="0"/>
</radialGradient>
<radialGradient id="paint42_radial_5003_4826" cx="0" cy="0" r="1" gradientUnits="userSpaceOnUse" gradientTransform="translate(929.433 257.221) rotate(90) scale(3.55267 3.61364)">
<stop stop-color="#164664"/>
<stop offset="1" stop-color="#164664" stop-opacity="0"/>
</radialGradient>
<radialGradient id="paint43_radial_5003_4826" cx="0" cy="0" r="1" gradientUnits="userSpaceOnUse" gradientTransform="translate(1072.67 613.672) rotate(90) scale(5.9211 5.91957)">
<stop stop-color="#164664"/>
<stop offset="0.739583" stop-color="#164664" stop-opacity="0.78"/>
<stop offset="1" stop-color="#164664" stop-opacity="0"/>
</radialGradient>
<radialGradient id="paint44_radial_5003_4826" cx="0" cy="0" r="1" gradientUnits="userSpaceOnUse" gradientTransform="translate(705.195 457.355) rotate(90) scale(5.9211 5.91957)">
<stop stop-color="#164664"/>
<stop offset="0.739583" stop-color="#164664" stop-opacity="0.78"/>
<stop offset="1" stop-color="#164664" stop-opacity="0"/>
</radialGradient>
<radialGradient id="paint45_radial_5003_4826" cx="0" cy="0" r="1" gradientUnits="userSpaceOnUse" gradientTransform="translate(492.838 340.709) rotate(90) scale(5.92112 6.02274)">
<stop stop-color="#164664"/>
<stop offset="0.739583" stop-color="#164664" stop-opacity="0.78"/>
<stop offset="1" stop-color="#164664" stop-opacity="0"/>
</radialGradient>
<clipPath id="clip0_5003_4826">
<rect width="1918" height="1059" fill="white"/>
</clipPath>
</defs>
</svg>
